<svg width="260" height="104" viewBox="0 0 260 104" fill="none" xmlns="http://www.w3.org/2000/svg">
<g filter="url(#filter0_f_1_12)">
<path d="M253.691 2.00001C253.691 2.00001 19.3277 86.0613 10.8669 92.0783C8.32219 92.7602 5.96961 92.2318 5.61226 90.8981C5.2549 89.5645 7.02809 87.9306 9.57279 87.2487C18.7817 87.887 253.691 2.00001 253.691 2.00001Z" fill="url(#paint0_linear_1_12)"/>
</g>
<g filter="url(#filter1_f_1_12)">
<path d="M72.658 90.4364C72.658 90.4364 46.2641 96.6395 42.9169 99.0199C41.9101 99.2897 40.9794 99.0806 40.838 98.553C40.6966 98.0254 41.3981 97.379 42.4049 97.1092C46.0481 97.3618 72.658 90.4364 72.658 90.4364Z" fill="url(#paint1_linear_1_12)"/>
</g>
<defs>
<filter id="filter0_f_1_12" x="3.86647" y="0.3" width="251.525" height="93.7762" filterUnits="userSpaceOnUse" color-interpolation-filters="sRGB">
<feFlood flood-opacity="0" result="BackgroundImageFix"/>
<feBlend mode="normal" in="SourceGraphic" in2="BackgroundImageFix" result="shape"/>
<feGaussianBlur stdDeviation="0.85" result="effect1_foregroundBlur_1_12"/>
</filter>
<filter id="filter1_f_1_12" x="36.8199" y="86.4364" width="39.8381" height="16.7013" filterUnits="userSpaceOnUse" color-interpolation-filters="sRGB">
<feFlood flood-opacity="0" result="BackgroundImageFix"/>
<feBlend mode="normal" in="SourceGraphic" in2="BackgroundImageFix" result="shape"/>
<feGaussianBlur stdDeviation="2" result="effect1_foregroundBlur_1_12"/>
</filter>
<linearGradient id="paint0_linear_1_12" x1="-1.22889" y1="91.1779" x2="79.4032" y2="62.0735" gradientUnits="userSpaceOnUse">
<stop stop-color="#D9D9D9"/>
<stop offset="1" stop-color="#D9D9D9" stop-opacity="0"/>
</linearGradient>
<linearGradient id="paint1_linear_1_12" x1="38.1324" y1="98.6636" x2="70.0321" y2="87.1493" gradientUnits="userSpaceOnUse">
<stop stop-color="#D9D9D9"/>
<stop offset="1" stop-color="#D9D9D9" stop-opacity="0"/>
</linearGradient>
</defs>
</svg>
